<svg width="20" height="20" viewBox="0 0 20 20" fill="none" xmlns="http://www.w3.org/2000/svg">
<path fill-rule="evenodd" clip-rule="evenodd" d="M4.60925 5.22217C3.73219 5.68106 3.33585 6.23106 3.33585 6.74439C3.33585 7.25772 3.73219 7.80884 4.60925 8.26884C5.48789 8.72884 6.77403 9.04661 8.26232 9.04661C8.68447 9.04661 9.08934 9.16368 9.38785 9.37205C9.68636 9.58042 9.85407 9.86304 9.85407 10.1577C9.85407 10.4524 9.68636 10.735 9.38785 10.9434C9.08934 11.1518 8.68447 11.2688 8.26232 11.2688C6.15165 11.2688 4.17947 10.8222 2.69915 10.0466C1.21882 9.27106 0.152344 8.1155 0.152344 6.7455C0.152344 5.3755 1.21882 4.21883 2.69915 3.44328C4.17947 2.66883 6.15325 2.22217 8.26232 2.22217C11.5302 2.22217 14.6198 3.31439 15.8486 5.13328C15.9378 5.26533 15.9888 5.40835 15.9987 5.55416C16.0087 5.69998 15.9774 5.84573 15.9067 5.98311C15.836 6.12049 15.7272 6.2468 15.5865 6.35483C15.4459 6.46286 15.2761 6.55049 15.0869 6.61272C14.8978 6.67496 14.6929 6.71057 14.484 6.71753C14.2751 6.72449 14.0663 6.70266 13.8695 6.65329C13.6727 6.60392 13.4917 6.52798 13.337 6.42979C13.1822 6.33161 13.0567 6.21311 12.9675 6.08106C12.4104 5.25106 10.6722 4.44439 8.26391 4.44439C6.77562 4.44439 5.48789 4.76217 4.60925 5.22217Z" fill="#898989"/>
<path fill-rule="evenodd" clip-rule="evenodd" d="M11.3914 15.0922C12.2684 14.6333 12.6632 14.0833 12.6632 13.57C12.6632 13.0567 12.2684 12.5044 11.3898 12.0456C10.5127 11.5856 9.22501 11.2678 7.73832 11.2678C7.31616 11.2678 6.91129 11.1507 6.61278 10.9423C6.31427 10.734 6.14656 10.4514 6.14656 10.1567C6.14656 9.86198 6.31427 9.57937 6.61278 9.37099C6.91129 9.16262 7.31616 9.04556 7.73832 9.04556C9.84898 9.04556 11.8212 9.49222 13.3015 10.2678C14.7818 11.0433 15.8467 12.1989 15.8467 13.5689C15.8467 14.9389 14.7818 16.0956 13.2999 16.87C11.8196 17.6456 9.84898 18.0922 7.73832 18.0922C4.47045 18.0922 1.37927 17 0.152031 15.18C-0.0280197 14.9135 -0.0490098 14.6079 0.0936785 14.3306C0.236367 14.0532 0.531045 13.8268 0.912887 13.7011C1.29473 13.5754 1.73246 13.5608 2.12978 13.6604C2.52709 13.76 2.85146 13.9657 3.03151 14.2322C3.5918 15.0633 5.33 15.87 7.73832 15.87C9.2266 15.87 10.5127 15.5522 11.3914 15.0922ZM7.95798 0C8.38014 0 8.785 0.117063 9.08351 0.325437C9.38203 0.533811 9.54973 0.816426 9.54973 1.11111V2.22222C9.54973 2.51691 9.38203 2.79952 9.08351 3.0079C8.785 3.21627 8.38014 3.33333 7.95798 3.33333C7.53582 3.33333 7.13095 3.21627 6.83244 3.0079C6.53393 2.79952 6.36623 2.51691 6.36623 2.22222V1.11111C6.36623 0.816426 6.53393 0.533811 6.83244 0.325437C7.13095 0.117063 7.53582 0 7.95798 0Z" fill="#898989"/>
<path fill-rule="evenodd" clip-rule="evenodd" d="M7.95894 16.6665C8.3811 16.6665 8.78596 16.7836 9.08448 16.9919C9.38299 17.2003 9.55069 17.4829 9.55069 17.7776V18.8887C9.55069 19.1834 9.38299 19.466 9.08448 19.6744C8.78596 19.8828 8.3811 19.9998 7.95894 19.9998C7.53678 19.9998 7.13191 19.8828 6.8334 19.6744C6.53489 19.466 6.36719 19.1834 6.36719 18.8887V17.7776C6.36719 17.4829 6.53489 17.2003 6.8334 16.9919C7.13191 16.7836 7.53678 16.6665 7.95894 16.6665Z" fill="#898989"/>
</svg>
