<svg width="45" height="45" viewBox="0 0 45 45" fill="none" xmlns="http://www.w3.org/2000/svg">
<path d="M10 0.5H35C35.7908 0.5 36.344 0.810759 36.7295 1.44629C37.1195 2.08953 37.1445 2.71951 36.8027 3.40039V3.40137L32.5527 11.9014L32.4072 12.1934L32.6152 12.4443L41.4902 23.1318V23.1309C42.4529 24.294 43.1944 25.5982 43.7168 27.0449C44.2389 28.4909 44.5 29.975 44.5 31.5C44.5 35.1622 43.2377 38.2317 40.71 40.7402C38.1802 43.2506 35.1199 44.5016 31.5 44.5H13.5C9.83656 44.5 6.76696 43.2477 4.25879 40.7412C1.75079 38.2348 0.49839 35.165 0.5 31.5C0.5 29.975 0.761057 28.4909 1.2832 27.0449C1.80557 25.5984 2.54633 24.2939 3.50879 23.1309L3.50977 23.1318L12.3848 12.4443L12.5928 12.1934L12.4473 11.9014L8.19727 3.40137C7.85682 2.72048 7.88221 2.08994 8.27246 1.44629C8.65819 0.810278 9.21114 0.5 10 0.5ZM15.8672 14.6777L6.61719 25.6777L6.61621 25.6797C5.95302 26.4755 5.43563 27.3803 5.06348 28.3896C4.6903 29.4018 4.50178 30.4391 4.5 31.499V31.5C4.5 34.0045 5.37389 36.1433 7.11621 37.8857C8.74979 39.5193 10.7313 40.3893 13.0352 40.4902L13.5 40.5H31.5C34.0043 40.5 36.1433 39.6273 37.8857 37.8867C39.6285 36.1457 40.5017 34.0062 40.5 31.5L40.4912 31.1035C40.45 30.1826 40.2639 29.2869 39.9346 28.418C39.6072 27.5543 39.1709 26.763 38.625 26.0459L38.3848 25.7432L29.1973 14.6807L29.0469 14.5H16.0176L15.8672 14.6777ZM22.501 23C23.7374 22.997 24.788 23.4327 25.6787 24.3232C26.5694 25.2139 27.0045 26.2636 27 27.498C26.9955 28.7355 26.5591 29.7877 25.6768 30.6807C24.7977 31.5703 23.7488 32.006 22.502 32H22.5C21.2585 32 20.2085 31.5639 19.3232 30.6787C18.4382 29.7935 18.0015 28.7424 18 27.499C17.9986 26.2567 18.4346 25.2074 19.3223 24.3242C20.2115 23.4395 21.2626 23.0031 22.501 23ZM13.6152 5.22363L16.1152 10.2236L16.2539 10.5H28.7461L28.8848 10.2236L31.3848 5.22363L31.7461 4.5H13.2539L13.6152 5.22363Z" fill="#898989" stroke="#898989"/>
</svg>
