<svg width="45" height="45" viewBox="0 0 45 45" fill="none" xmlns="http://www.w3.org/2000/svg">
<path d="M22.5 0.5C26.2938 0.498606 29.5005 1.5165 32.1475 3.5332C34.7913 5.54762 36.066 7.93585 36.0625 10.7139V15.5H39.375C40.8258 15.5 42.0406 15.8922 43.0459 16.6582C44.0488 17.4224 44.5016 18.2932 44.5 19.2852V40.7139C44.5 41.7081 44.047 42.5807 43.0459 43.3447C42.0428 44.1103 40.8277 44.5013 39.375 44.5H5.625C4.17416 44.5 2.96029 44.109 1.95703 43.3447C0.956302 42.5823 0.501697 41.7099 0.5 40.7139V19.2861C0.5 18.2924 0.953527 17.4209 1.95605 16.6582C2.89879 15.9411 4.02537 15.5518 5.35645 15.5049L5.625 15.5H8.9375V10.7139C8.93763 7.93259 10.2137 5.54457 12.8555 3.5332C15.5005 1.51932 18.706 0.501426 22.5 0.5ZM5.125 41.2139H39.875V18.7861H5.125V41.2139ZM22.499 26.2139C23.9545 26.2165 25.1695 26.6092 26.1709 27.3721C27.1696 28.133 27.6234 29.0045 27.625 30.001C27.6265 30.9961 27.1733 31.8675 26.1709 32.6299C25.1656 33.3944 23.9508 33.7861 22.5 33.7861H22.498C21.0566 33.7915 19.8433 33.4003 18.832 32.6299C17.8225 31.8607 17.3703 30.9891 17.375 30.002C17.3799 29.0109 17.8346 28.1385 18.833 27.3711C19.8317 26.6037 21.0448 26.2112 22.499 26.2139ZM22.5 3.78613C20.0626 3.78613 17.96 4.43762 16.2207 5.7627C14.4779 7.09054 13.5626 8.74675 13.5625 10.7139V15.5H31.4375V10.7139C31.4374 8.74675 30.5221 7.09054 28.7793 5.7627C27.04 4.43762 24.9374 3.78613 22.5 3.78613Z" fill="#898989" stroke="#898989"/>
</svg>
