<svg width="45" height="45" viewBox="0 0 45 45" fill="none" xmlns="http://www.w3.org/2000/svg">
<path d="M13.5137 36.5C14.6143 36.4973 15.5477 36.8844 16.3408 37.6768C17.134 38.4692 17.5206 39.4007 17.5166 40.498C17.5126 41.5984 17.1247 42.5326 16.3389 43.3271C15.5564 44.1183 14.6246 44.5054 13.5146 44.5H13.5127C12.4074 44.5 11.4737 44.1126 10.6855 43.3252C9.8976 42.5378 9.51013 41.6046 9.50879 40.499C9.50752 39.3946 9.89444 38.4633 10.6846 37.6777C11.4764 36.8906 12.411 36.5027 13.5137 36.5ZM36.0342 36.5C37.1349 36.4973 38.0691 36.8843 38.8623 37.6768C39.6553 38.4691 40.0411 39.4008 40.0371 40.498C40.0331 41.5982 39.6459 42.5327 38.8604 43.3271C38.078 44.1182 37.1459 44.5052 36.0361 44.5H36.0332C34.928 44.5 33.9952 44.1126 33.207 43.3252C32.4189 42.5378 32.0306 41.6047 32.0293 40.499C32.028 39.3945 32.4157 38.4633 33.2061 37.6777C33.9979 36.8907 34.9317 36.5028 36.0342 36.5ZM2.25195 0.5H5.91211C6.22881 0.50007 6.53451 0.585329 6.83691 0.766602C7.12203 0.937525 7.33614 1.17731 7.4834 1.50098L7.48633 1.50781L9.00684 4.71387L9.14258 5H42.6768C43.3554 5 43.8515 5.28478 44.2158 5.90723C44.5794 6.52848 44.5929 7.12254 44.2607 7.75488L36.2715 22.1445L36.2705 22.1465C35.898 22.8231 35.4061 23.337 34.7939 23.7012C34.1796 24.0665 33.5073 24.25 32.7676 24.25H15.6943L15.5518 24.5088L13.0742 29.0088L12.666 29.75H38.2852C38.7972 29.75 39.2039 29.9181 39.5381 30.252C39.8719 30.5856 40.0383 30.9903 40.0371 31.499C40.0359 32.0092 39.8681 32.416 39.5342 32.752C39.2024 33.0857 38.7986 33.2523 38.2881 33.25H13.5127C12.0048 33.25 10.8915 32.6069 10.1162 31.2773C9.33732 29.9416 9.3081 28.6537 10.0107 27.3486L13.0498 21.8418L13.1729 21.6172L13.0635 21.3857L4.95605 4.28613L4.82031 4H2.25195C1.7401 3.99997 1.33527 3.83211 1.00293 3.49902C0.669586 3.16483 0.501249 2.75917 0.5 2.24902C0.4988 1.74066 0.665636 1.33583 1.00098 1.00195C1.29535 0.708866 1.64345 0.5444 2.06641 0.507812L2.25195 0.5ZM11.1475 9.2168L16.5527 20.4668L16.6885 20.75H33.0635L33.2061 20.4912L39.3994 9.24121L39.8066 8.5H10.8037L11.1475 9.2168Z" fill="#898989" stroke="#898989"/>
</svg>
