<svg width="50" height="51" viewBox="0 0 50 51" fill="none" xmlns="http://www.w3.org/2000/svg">
<path d="M36.2493 26.4148V7.28295C36.2493 6.01444 35.6567 4.79787 34.6018 3.90089C33.5469 3.00392 32.1162 2.5 30.6244 2.5H24.9995M24.9995 2.5H8.12489C6.63307 2.5 5.20236 3.00392 4.14749 3.90089C3.09262 4.79787 2.5 6.01444 2.5 7.28295V35.9807C2.5 37.2492 3.09262 38.4658 4.14749 39.3627C5.20236 40.2597 6.63307 40.7636 8.12489 40.7636H27.812M24.9995 2.5V27.6105M13.7498 12.0659V19.2403" stroke="#898989" stroke-width="5" stroke-linecap="round" stroke-linejoin="round"/>
<path d="M47.5001 47.938V30.9585C47.4995 28.7597 46.9896 26.5826 45.9994 24.5514C45.0091 22.5203 43.5581 20.6749 41.729 19.1207L36.2447 14.4573V30.2099C36.2447 32.3384 33.2157 33.4073 31.4439 31.9007L27.8017 28.8061C26.3955 27.6104 23.0178 26.893 20.765 28.8061C18.5123 30.7193 19.3588 33.5891 20.765 34.7848L36.2419 47.938" stroke="#898989" stroke-width="5" stroke-linecap="round" stroke-linejoin="round"/>
</svg>
