<svg width="30" height="30" viewBox="0 0 30 30" fill="none" xmlns="http://www.w3.org/2000/svg">
<path d="M15.0007 16.556C17.578 16.556 19.6673 14.4667 19.6673 11.8893C19.6673 9.31199 17.578 7.22266 15.0007 7.22266C12.4233 7.22266 10.334 9.31199 10.334 11.8893C10.334 14.4667 12.4233 16.556 15.0007 16.556Z" stroke="#898989" stroke-width="2" stroke-linecap="round" stroke-linejoin="round"/>
<path d="M22.7782 22.7779C22.7782 19.3401 19.2953 16.5557 15.0004 16.5557C10.7055 16.5557 7.22266 19.3401 7.22266 22.7779" stroke="#898989" stroke-width="2" stroke-linecap="round" stroke-linejoin="round"/>
<path d="M24.3333 1H5.66667C3.08934 1 1 3.08934 1 5.66667V24.3333C1 26.9107 3.08934 29 5.66667 29H24.3333C26.9107 29 29 26.9107 29 24.3333V5.66667C29 3.08934 26.9107 1 24.3333 1Z" stroke="#898989" stroke-width="2" stroke-linecap="round" stroke-linejoin="round"/>
</svg>
