<svg width="30" height="30" viewBox="0 0 30 30" fill="none" xmlns="http://www.w3.org/2000/svg">
<path d="M18.184 29H11.816L10.9388 25.1422C9.89497 24.7432 8.9187 24.1925 8.04298 23.5089L4.18399 24.6958L1 19.3073L3.98021 16.6349C3.8121 15.5522 3.8121 14.4509 3.98021 13.3682L1 10.6942L4.18399 5.30578L8.04298 6.49267C8.91909 5.80833 9.8959 5.25716 10.9404 4.85778L11.816 1H18.184L19.0612 4.85778C20.105 5.25682 21.0813 5.80746 21.957 6.49111L25.816 5.30422L29 10.6927L26.0198 13.3651C26.1879 14.4478 26.1879 15.5491 26.0198 16.6318L29 19.3042L25.816 24.6927L21.957 23.5058C21.0815 24.1905 20.1052 24.7422 19.0612 25.1422L18.184 29Z" stroke="#898989" stroke-width="2" stroke-linecap="round" stroke-linejoin="round"/>
<path d="M15 20C12.2386 20 10 17.7614 10 15C10 12.2386 12.2386 10 15 10C17.7614 10 20 12.2386 20 15C20 17.7614 17.7614 20 15 20Z" stroke="#898989" stroke-width="2"/>
</svg>
