<svg width="20" height="20" viewBox="0 0 20 20" fill="none" xmlns="http://www.w3.org/2000/svg">
<path d="M1 7.75V2.125C1 1.82663 1.10536 1.54048 1.29289 1.32951C1.48043 1.11853 1.73478 1 2 1H6C6 2.125 6.8 4.375 10 4.375C13.2 4.375 14 2.125 14 1H18C18.2652 1 18.5196 1.11853 18.7071 1.32951C18.8946 1.54048 19 1.82663 19 2.125V7.75C19 8.04837 18.8946 8.33452 18.7071 8.54549C18.5196 8.75647 18.2652 8.875 18 8.875H17C16.7348 8.875 16.4804 8.99353 16.2929 9.20451C16.1054 9.41548 16 9.70163 16 10V17.875C16 18.1734 15.8946 18.4595 15.7071 18.6705C15.5196 18.8815 15.2652 19 15 19H5C4.73478 19 4.48043 18.8815 4.29289 18.6705C4.10536 18.4595 4 18.1734 4 17.875V10C4 9.70163 3.89464 9.41548 3.70711 9.20451C3.51957 8.99353 3.26522 8.875 3 8.875H2C1.73478 8.875 1.48043 8.75647 1.29289 8.54549C1.10536 8.33452 1 8.04837 1 7.75Z" stroke="#898989" stroke-width="2" stroke-linecap="round" stroke-linejoin="round"/>
</svg>
