<svg width="20" height="20" viewBox="0 0 20 20" fill="none" xmlns="http://www.w3.org/2000/svg">
<path d="M12.7 13.375L15.7411 9.57363C15.9184 9.35202 16.1288 9.17626 16.3605 9.05638C16.5921 8.93651 16.8404 8.87487 17.0911 8.875H17.2C17.6774 8.875 18.1352 9.11205 18.4728 9.53401C18.8104 9.95597 19 10.5283 19 11.125C19 11.7217 18.8104 12.294 18.4728 12.716C18.1352 13.1379 17.6774 13.375 17.2 13.375H2.8C2.32261 13.375 1.86477 13.1379 1.52721 12.716C1.18964 12.294 1 11.7217 1 11.125C1 10.5283 1.18964 9.95597 1.52721 9.53401C1.86477 9.11205 2.32261 8.875 2.8 8.875H6.8635C8.29542 8.87508 9.66869 9.58608 10.6813 10.8516L12.7 13.375ZM1.9 13.375H18.1V15.625C18.1 16.5201 17.8155 17.3786 17.3092 18.0115C16.8028 18.6444 16.1161 19 15.4 19H4.6C3.88392 19 3.19716 18.6444 2.69081 18.0115C2.18446 17.3786 1.9 16.5201 1.9 15.625V13.375Z" stroke="#898989" stroke-width="2" stroke-linecap="round" stroke-linejoin="round"/>
<path d="M9.99885 1C5.83815 1 2.41005 2.9755 1.95105 7.75C1.89165 8.36875 2.30205 8.875 2.79885 8.875H17.1988C17.6956 8.875 18.106 8.36875 18.0466 7.75C17.5876 2.9755 14.1595 1 9.99885 1Z" stroke="#898989" stroke-width="2" stroke-linecap="round" stroke-linejoin="round"/>
</svg>
