<svg width="20" height="20" viewBox="0 0 20 20" fill="none" xmlns="http://www.w3.org/2000/svg">
<path d="M13 5.5V3.25C13 2.65326 12.7893 2.08097 12.4142 1.65901C12.0391 1.23705 11.5304 1 11 1H9C8.46957 1 7.96086 1.23705 7.58579 1.65901C7.21071 2.08097 7 2.65326 7 3.25V5.5M13 5.5H17C17.5304 5.5 18.0391 5.73705 18.4142 6.15901C18.7893 6.58097 19 7.15326 19 7.75V11.125M13 5.5H7M7 5.5H3C2.46957 5.5 1.96086 5.73705 1.58579 6.15901C1.21071 6.58097 1 7.15326 1 7.75V11.125M19 11.125V16.75C19 17.3467 18.7893 17.919 18.4142 18.341C18.0391 18.7629 17.5304 19 17 19H3C2.46957 19 1.96086 18.7629 1.58579 18.341C1.21071 17.919 1 17.3467 1 16.75V11.125M19 11.125H12M1 11.125H8M8 11.125V8.875H12V11.125M8 11.125V13.375H12V11.125" stroke="#898989" stroke-width="2" stroke-linecap="round" stroke-linejoin="round"/>
</svg>
