<svg width="20" height="20" viewBox="0 0 20 20" fill="none" xmlns="http://www.w3.org/2000/svg">
<path d="M1 8.875L3.48 2.3635C3.63432 1.9585 3.89096 1.61339 4.21805 1.371C4.54515 1.12861 4.92832 0.999609 5.32 1H14.682C15.0733 1.00005 15.4561 1.12926 15.7828 1.37162C16.1095 1.61399 16.3658 1.95885 16.52 2.3635L19 8.875M1 8.875H19M1 8.875V16.75M19 8.875V16.75M1 16.75V17.3125C1 17.7601 1.15804 18.1893 1.43934 18.5057C1.72064 18.8222 2.10218 19 2.5 19C2.89782 19 3.27936 18.8222 3.56066 18.5057C3.84196 18.1893 4 17.7601 4 17.3125V16.75M1 16.75H4M19 16.75V17.3125C19 17.7601 18.842 18.1893 18.5607 18.5057C18.2794 18.8222 17.8978 19 17.5 19C17.1022 19 16.7206 18.8222 16.4393 18.5057C16.158 18.1893 16 17.7601 16 17.3125V16.75M19 16.75H16M16 16.75H4" stroke="#898989" stroke-width="2" stroke-linecap="round" stroke-linejoin="round"/>
</svg>
