<svg width="20" height="20" viewBox="0 0 20 20" fill="none" xmlns="http://www.w3.org/2000/svg">
<path d="M15.696 1.92493C13.098 0.430094 9.5 0.661296 8 3.25036L11.464 5.24348M15.696 1.92493C18.294 3.41978 19.892 6.64066 18.392 9.22972L13.196 6.24004M15.696 1.92493L16.196 1.06191M15.696 1.92493C13.875 2.41126 12.714 3.08593 11.464 5.24348M15.696 1.92493C16.184 3.73967 16.178 5.07905 14.928 7.2366M11.464 5.24348L13.196 6.24004M13.196 6.24004L10.196 11.4182M1 19L1.88 17.9476C2.07318 17.7161 2.31651 17.5311 2.5917 17.4067C2.8669 17.2823 3.1668 17.2217 3.46889 17.2293C3.77098 17.237 4.06739 17.3128 4.33587 17.451C4.60435 17.5892 4.8379 17.7863 5.019 18.0274C5.19757 18.2651 5.4272 18.4602 5.69111 18.5981C5.95502 18.7361 6.24654 18.8136 6.54435 18.8248C6.84216 18.8361 7.13873 18.7809 7.41238 18.6633C7.68604 18.5456 7.92985 18.3686 8.126 18.145L8.316 17.9277C8.52587 17.6884 8.78468 17.4967 9.07504 17.3653C9.3654 17.2339 9.68061 17.1659 9.9995 17.1659C10.3184 17.1659 10.6336 17.2339 10.924 17.3653C11.2143 17.4967 11.4731 17.6884 11.683 17.9277L11.874 18.145C12.712 19.0987 14.218 19.0419 14.981 18.0284C15.1621 17.7871 15.3957 17.5899 15.6643 17.4516C15.9328 17.3132 16.2294 17.2374 16.5316 17.2297C16.8338 17.222 17.1339 17.2827 17.4092 17.4073C17.6844 17.5318 17.9278 17.7169 18.121 17.9486L19 19M4.708 14.0172C6.16808 12.7303 8.05078 12.0212 10 12.0241C11.9492 12.0212 13.8319 12.7303 15.292 14.0172" stroke="#898989" stroke-width="2" stroke-linecap="round" stroke-linejoin="round"/>
</svg>
