<svg width="20" height="20" viewBox="0 0 20 20" fill="none" xmlns="http://www.w3.org/2000/svg">
<path d="M11.1702 17.2222C10.0981 17.2234 9.04639 16.8612 8.13019 16.1753C7.21398 15.4894 6.46858 14.5062 5.97555 13.3333H10.611C10.9537 13.3333 11.2694 13.1 11.4137 12.7222C11.7113 11.9889 11.2784 11.1111 10.611 11.1111H5.38034C5.33524 10.7444 5.30819 10.3778 5.30819 10C5.30819 9.62222 5.33524 9.25556 5.38034 8.88889H10.611C10.9537 8.88889 11.2694 8.65556 11.4137 8.27778C11.4845 8.10885 11.5187 7.92028 11.513 7.7303C11.5073 7.54031 11.4619 7.35536 11.3811 7.19334C11.3004 7.03131 11.1871 6.8977 11.0522 6.80543C10.9173 6.71317 10.7653 6.66537 10.611 6.66667H5.97555C6.46937 5.49457 7.21496 4.51205 8.13098 3.82628C9.04701 3.14051 10.0983 2.77782 11.1702 2.77778C12.2975 2.77778 13.3526 3.17778 14.2545 3.85556C14.7054 4.2 15.2916 4.14444 15.6704 3.67778C16.1934 3.03333 16.0762 1.97778 15.4449 1.5C14.1604 0.521321 12.6804 0.00197549 11.1702 0C7.63494 0 4.64083 2.78889 3.52254 6.66667H0.907198C0.564497 6.66667 0.248853 6.9 0.0955394 7.27778C-0.202069 8.02222 0.230816 8.88889 0.907198 8.88889H3.10769C3.03499 9.62692 3.03499 10.3731 3.10769 11.1111H0.907198C0.564497 11.1111 0.248853 11.3444 0.104558 11.7222C-0.202069 12.4667 0.230816 13.3333 0.907198 13.3333H3.52254C4.64083 17.2111 7.63494 20 11.1702 20C12.7394 20 14.2004 19.4556 15.4449 18.5C16.0672 18.0222 16.1844 16.9556 15.6613 16.3111C15.2826 15.8444 14.6964 15.7889 14.2454 16.1444C13.3526 16.8333 12.3065 17.2222 11.1702 17.2222Z" fill="#898989"/>
</svg>
