<svg width="20" height="20" viewBox="0 0 20 20" fill="none" xmlns="http://www.w3.org/2000/svg">
<path d="M5.07917 3.75893C5.7625 3.17411 6.6125 2.85714 7.48333 2.85714H9.29167C10.4208 2.85714 11.3333 3.83482 11.3333 5.04464C11.3333 5.55804 11.1667 6.04464 10.8708 6.42857H1.33333C0.595833 6.42857 0 7.06696 0 7.85714C0 8.64732 0.595833 9.28571 1.33333 9.28571H6.47917L4.37083 10.5759C4.3 10.6205 4.22917 10.6652 4.15833 10.7143H1.33333C0.595833 10.7143 0 11.3527 0 12.1429C0 12.933 0.595833 13.5714 1.33333 13.5714H2.17917C2.0625 14.0134 2 14.4821 2 14.9554C2 17.7411 4.10833 20 6.70833 20H8.51667C9.99583 20 11.4333 19.4598 12.5875 18.4688L12.8333 18.2589C13.4083 17.7679 13.5 16.8661 13.0417 16.25C12.5833 15.6339 11.7417 15.5357 11.1667 16.0268L10.9208 16.2366C10.2375 16.8214 9.39167 17.1384 8.51667 17.1384L6.70833 17.1429C5.57917 17.1429 4.66667 16.1652 4.66667 14.9554C4.66667 14.442 4.83333 13.9554 5.12917 13.5714H14.6667C15.4042 13.5714 16 12.933 16 12.1429C16 11.3527 15.4042 10.7143 14.6667 10.7143H9.52083L11.6292 9.42411C11.7 9.37946 11.7708 9.33482 11.8417 9.28571H14.6667C15.4042 9.28571 16 8.64732 16 7.85714C16 7.06696 15.4042 6.42857 14.6667 6.42857H13.8208C13.9375 5.98214 14 5.51786 14 5.04464C14 2.25893 11.8917 0 9.29167 0H7.48333C6.00417 0 4.56667 0.540179 3.4125 1.53125L3.16667 1.74107C2.59167 2.23214 2.5 3.13393 2.95833 3.75C3.41667 4.36607 4.25833 4.46429 4.83333 3.97321L5.07917 3.76339V3.75893Z" fill="#898989"/>
</svg>
