<svg width="50" height="50" viewBox="0 0 50 50" fill="none" xmlns="http://www.w3.org/2000/svg">
<path d="M22.1754 33.5314C21.6652 33.5631 21.5475 33.8088 21.5429 34.2183C21.5253 35.8029 21.5126 35.8049 19.81 35.8031C18.3888 35.8015 18.5633 35.8917 18.5596 34.6031C18.5562 33.421 18.5428 33.6602 17.5751 33.4605C17.0673 33.3557 16.5889 33.1102 15.9437 33.1298C15.9437 33.8222 15.9305 34.4954 15.9482 35.1679C15.9603 35.6267 15.7624 35.8122 15.2704 35.8037C14.1289 35.7839 12.9866 35.7856 11.8449 35.8008C11.3917 35.8069 11.1965 35.6573 11.2013 35.2098C11.2191 33.5317 11.2116 31.8534 11.213 30.1752C11.2132 29.9517 11.2363 29.7348 11.3977 29.555C12.589 28.2268 13.8226 26.9396 15.3474 25.9366C15.4676 25.8576 15.5884 25.7701 15.7662 25.7883C16.0252 25.9709 15.9283 26.2515 15.9499 26.4972C15.9691 26.7157 15.9407 26.9382 15.9649 27.1559C16.0235 27.6825 15.7146 28.3311 16.1362 28.7139C16.7389 29.2611 17.5437 29.5691 18.3561 29.7406C18.6457 29.5296 18.5494 29.2697 18.5507 29.0445C18.5597 27.4262 18.5684 25.8078 18.5481 24.1897C18.5429 23.7833 18.6842 23.5258 19.0432 23.3041C20.5296 22.3859 22.0036 21.4498 23.4744 20.5094C23.7225 20.3507 23.9353 20.2755 24.2287 20.4136C26.4435 21.4563 28.063 22.9561 28.4882 25.3644C28.5816 25.894 28.6355 26.4354 28.6423 26.9721C28.6762 29.6488 28.6907 32.3257 28.7064 35.0025C28.7108 35.7486 28.6649 35.7884 27.8903 35.7911C26.833 35.7949 25.7744 35.7619 24.7189 35.8033C24.0845 35.8281 23.915 35.5852 23.9269 35.0307C23.9401 34.4189 24.0474 33.7987 23.8792 33.151C23.2895 33.1699 22.7826 33.4548 22.1754 33.5314ZM22.1326 24.1229C21.9623 24.065 21.7948 23.9382 21.6043 24.106C21.6043 25.9838 21.6043 27.8636 21.6043 29.7445C23.1666 29.6959 24.4467 28.1253 24.2366 26.6419C24.0647 25.4278 23.32 24.6726 22.1326 24.1229Z" fill="url(#paint0_linear_124_1200)"/>
<path d="M15.1456 21.7178C17.4214 19.7079 19.8946 17.983 22.1882 16.0588C25.541 13.2461 28.6086 10.1991 30.9081 6.52664C31.3691 5.79033 31.3552 5.7898 30.5644 5.35174C29.8389 4.94992 29.1218 4.53472 28.447 4.15151C28.4317 3.90682 28.5629 3.87155 28.6764 3.82369C31.7663 2.52089 34.8801 1.27149 38.0201 0.0800391C38.494 -0.099776 38.6982 0.0162835 38.684 0.500449C38.5921 3.65599 38.5047 6.81166 38.4117 9.96718C38.4071 10.1226 38.4081 10.2888 38.2513 10.448C37.7823 10.3701 37.5028 9.99379 37.1465 9.74103C36.7919 9.48948 36.4476 9.2195 36.1321 8.92565C35.7415 8.56185 35.4749 8.57512 35.1262 9.01051C33.7446 10.7352 32.1866 12.314 30.5183 13.7938C27.2812 16.6649 23.6251 19.0104 19.935 21.3142C17.7994 22.6476 15.6906 24.0151 13.7728 25.63C12.3564 26.8227 11.1083 28.1394 10.1629 29.701C10.091 29.8199 9.99501 29.9266 9.90142 30.032C9.88361 30.0521 9.82432 30.0393 9.71387 30.0457C10.5802 26.7137 12.5795 24.0775 15.1456 21.7178Z" fill="url(#paint1_linear_124_1200)"/>
<path d="M36.034 31.9378C36.034 33.0172 36.007 34.0376 36.0448 35.0558C36.065 35.5974 35.8882 35.8095 35.2954 35.7917C34.2175 35.7592 33.1367 35.7587 32.059 35.7955C31.4415 35.8165 31.2592 35.5956 31.2617 35.0291C31.2825 30.3716 31.278 25.7141 31.2808 21.0565C31.282 19.1576 31.2907 17.2585 31.2772 15.3596C31.2741 14.9295 31.4075 14.6188 31.7546 14.3164C33.0626 13.1765 34.2557 11.9331 35.3388 10.5965C35.4963 10.4021 35.5975 10.1327 36.034 10.063C36.034 17.3559 36.034 24.6168 36.034 31.9378Z" fill="url(#paint2_linear_124_1200)"/>
<path d="M11.7061 15.2664C11.8143 11.9089 14.0429 9.42167 17.6168 8.61325C18.5528 8.40154 18.5528 8.40154 18.5533 7.47716C18.5534 7.33729 18.5662 7.19623 18.5516 7.05776C18.5063 6.62999 18.6737 6.43553 19.1575 6.45776C19.7905 6.48686 20.4262 6.4728 21.0605 6.46318C21.4063 6.45794 21.5757 6.59245 21.554 6.92433C21.5527 6.94421 21.553 6.96442 21.5551 6.98423C21.6063 7.45498 21.3541 8.02112 21.6892 8.37556C21.9941 8.69803 22.5936 8.62906 23.0579 8.75251C24.1231 9.03573 25.129 9.43793 26.0688 9.99396C26.4085 10.1949 26.5185 10.3791 26.2102 10.6939C25.507 11.4119 24.818 12.1424 24.1275 12.8715C23.8507 13.1638 23.59 13.2427 23.2002 12.9935C22.7698 12.7183 22.2164 12.3009 21.7714 12.5123C21.3032 12.7349 21.5159 13.4039 21.5809 13.8429C21.737 14.8954 21.278 15.5836 20.3962 16.1373C19.8079 16.5067 19.3255 17.0202 18.5679 17.418C18.5679 15.6786 18.5679 14.0571 18.5679 12.3511C17.4775 12.5518 16.7373 13.0247 16.3609 13.8992C15.5983 15.6709 16.4989 16.8829 18.0636 17.8986C17.3075 18.5204 16.6147 19.0908 15.9211 19.6602C15.8094 19.7519 15.6921 19.8376 15.5804 19.9293C14.6287 20.7108 14.6322 20.7078 13.7278 19.8916C12.3478 18.6462 11.7528 17.0935 11.7061 15.2664Z" fill="url(#paint3_linear_124_1200)"/>
<path d="M49.7127 44.4076C49.1351 46.0433 48.5359 47.624 48.0306 49.2311C47.8111 49.9294 47.3118 49.8107 46.7915 49.8438C46.2664 49.8771 45.9773 49.71 45.8241 49.2134C45.4943 48.1449 45.1113 47.091 44.5922 46.0244C44.2764 46.9693 43.9573 47.9131 43.6457 48.8592C43.3221 49.842 42.9249 50.051 41.8255 49.8215C41.6147 49.7775 41.4853 49.6724 41.4202 49.4878C40.7053 47.4631 39.9179 45.4605 39.2861 43.3435C39.9154 43.1399 40.5175 43.19 41.112 43.2797C41.3913 43.3218 41.3961 43.6091 41.4592 43.8083C41.7317 44.6685 41.9847 45.5343 42.2453 46.3979C42.3077 46.6046 42.3359 46.8252 42.5458 47.045C42.8658 46.4029 43.0065 45.7435 43.2206 45.1093C43.349 44.729 43.5012 44.3517 43.5809 43.9618C43.6983 43.3873 44.0154 43.1809 44.6384 43.2106C45.563 43.2545 45.5544 43.222 45.8278 44.0984C46.1204 45.0366 46.4348 45.9687 46.7419 46.9028C46.7601 46.9582 46.7984 47.0077 46.8833 47.1607C47.2144 46.0766 47.5712 45.0851 47.8089 44.0686C47.97 43.3792 48.3292 43.1226 49.0382 43.2134C49.3453 43.2528 49.6732 43.1486 49.9923 43.3475C50.0459 43.7108 49.8097 44.0215 49.7127 44.4076Z" fill="url(#paint4_linear_124_1200)"/>
<path d="M26.7696 42.6648C25.4127 42.6648 23.9712 42.6289 22.7277 42.6135C22.0867 42.6055 22.1441 42.9188 22.1712 43.5321C22.2385 45.0566 21.9654 44.8233 23.5481 44.8458C24.3094 44.8567 25.0715 44.8675 25.832 44.8442C26.2945 44.8301 26.4712 44.991 26.4764 45.4316C26.4883 46.4378 26.4603 46.4834 25.4127 46.4854C24.5455 46.487 23.6778 46.5037 22.8115 46.4781C22.3503 46.4645 22.1618 46.6038 22.1801 47.0569C22.209 47.7752 22.1712 48.4958 22.1925 49.2146C22.2049 49.6349 22.0705 49.8399 21.5852 49.8347C19.8474 49.816 20.1148 49.9618 20.1096 48.4816C20.1018 46.2836 20.1089 44.0855 20.1128 41.8874C20.1142 41.0782 20.1381 41.0571 21.0138 41.0553C22.6846 41.0517 24.3555 41.0506 26.0263 41.0503C26.8613 41.0501 26.8807 41.0669 26.879 41.854C26.8785 42.1115 26.9219 42.3746 26.7696 42.6648Z" fill="url(#paint5_linear_124_1200)"/>
<path d="M6.67193 42.5237C5.31504 42.5237 3.87352 42.4878 2.63005 42.4724C1.98904 42.4644 2.04647 42.7777 2.07353 43.3909C2.14083 44.9154 1.86777 44.6822 3.45047 44.7047C4.2117 44.7156 4.97383 44.7264 5.73439 44.7031C6.1968 44.689 6.37355 44.8499 6.37876 45.2905C6.39067 46.2967 6.36264 46.3423 5.31504 46.3443C4.44789 46.3459 3.58014 46.3626 2.71384 46.337C2.25269 46.3234 2.06412 46.4627 2.0824 46.9158C2.11137 47.6341 2.07357 48.3547 2.09483 49.0735C2.10726 49.4938 1.9728 49.6988 1.48759 49.6936C-0.25028 49.6749 0.0171897 49.8207 0.0119432 48.3405C0.00414692 46.1425 0.0112922 43.9444 0.0151322 41.7463C0.0165466 40.9371 0.0404157 40.916 0.916138 40.9141C2.58697 40.9106 4.25782 40.9095 5.92866 40.9092C6.76361 40.909 6.78307 40.9258 6.78137 41.7128C6.78081 41.9704 6.82423 42.2335 6.67193 42.5237Z" fill="url(#paint6_linear_124_1200)"/>
<path d="M32.1202 44.6162C33.1693 43.29 34.621 42.8096 36.2919 43.2061C37.7408 43.5499 38.7259 44.6124 38.8882 46.1975C39.0234 47.5172 38.5337 48.6565 37.3026 49.3812C35.9274 50.1907 34.4906 50.2216 33.1162 49.3819C31.9023 48.6403 31.4429 47.5241 31.5801 46.1813C31.6354 45.6394 31.7952 45.1244 32.1202 44.6162ZM36.3751 47.832C36.4882 47.6655 36.6262 47.5095 36.7102 47.3308C37.2091 46.2695 36.6522 44.9927 35.6193 44.806C34.782 44.6547 34.0956 44.9827 33.7577 45.6957C33.4007 46.4491 33.5957 47.5 34.1784 47.9639C34.8109 48.4673 35.5278 48.4434 36.3751 47.832Z" fill="url(#paint7_linear_124_1200)"/>
<path d="M16.2821 47.8923C16.2812 47.213 16.2888 46.5934 16.2776 45.9741C16.2629 45.1685 15.929 44.8221 15.1757 44.8058C14.3174 44.7872 13.6891 45.2721 13.6727 46.0143C13.6506 47.013 13.6698 48.0125 13.6667 49.0116C13.6643 49.8067 13.6424 49.825 12.8211 49.8318C11.6867 49.8413 11.6877 49.8413 11.6883 48.7985C11.6894 47.1808 11.7205 45.5622 11.6728 43.9457C11.6549 43.3364 11.8887 43.1556 12.4714 43.2203C12.5965 43.2343 12.7253 43.2273 12.8518 43.2205C13.2734 43.1977 13.6392 43.2413 13.5699 43.8407C14.1729 43.5782 14.6432 43.2464 15.2399 43.1477C17.0409 42.8498 18.2491 43.7493 18.2622 45.4578C18.2719 46.7167 18.2501 47.9759 18.2704 49.2345C18.2774 49.6694 18.1241 49.8424 17.6512 49.8364C16.0473 49.8163 16.3112 49.9044 16.2854 48.6116C16.281 48.3919 16.2831 48.172 16.2821 47.8923Z" fill="url(#paint8_linear_124_1200)"/>
<path d="M29.9467 43.3342C29.9478 44.7121 29.9528 46.0301 29.9476 47.348C29.9456 47.8635 30.0414 48.2771 30.7395 48.2328C30.829 48.2271 30.9566 48.2797 31.0119 48.346C31.398 48.8088 30.9951 49.7555 30.3796 49.8522C28.7258 50.1119 27.9846 49.527 27.9779 47.9307C27.9688 45.7542 27.9916 43.5774 27.965 41.4011C27.9581 40.8336 28.1409 40.6249 28.7591 40.6454C30.125 40.6906 29.9263 40.5504 29.9436 41.7766C29.9507 42.2758 29.9459 42.775 29.9467 43.3342Z" fill="url(#paint9_linear_124_1200)"/>
<path d="M9.9615 47.8917C9.96252 48.2709 9.9795 48.5911 9.95993 48.9093C9.94136 49.2114 10.1137 49.6454 9.71503 49.7608C9.19824 49.9106 8.62634 49.9087 8.09624 49.7417C7.89508 49.6783 7.91871 49.4418 7.91892 49.2633C7.92107 47.4669 7.93184 45.6706 7.92592 43.8742C7.92449 43.4433 8.09866 43.2771 8.5673 43.2855C10.0663 43.3122 9.95524 43.1083 9.95437 44.5386C9.9537 45.6364 9.95891 46.7341 9.9615 47.8917Z" fill="url(#paint10_linear_124_1200)"/>
<path d="M7.89499 41.7461C7.89504 40.579 8.1495 40.4125 9.51432 40.5891C9.84933 40.6324 9.97147 40.777 9.99615 41.0908C10.0989 42.3982 10.0891 42.4074 8.69842 42.4274C8.21718 42.4343 7.77465 42.4555 7.89499 41.7461Z" fill="url(#paint11_linear_124_1200)"/>
<defs>
<linearGradient id="paint0_linear_124_1200" x1="11.2012" y1="28.0732" x2="28.7067" y2="28.0732" gradientUnits="userSpaceOnUse">
<stop offset="0.1" stop-color="#92FE9D"/>
<stop offset="1" stop-color="#00C9FF"/>
</linearGradient>
<linearGradient id="paint1_linear_124_1200" x1="9.71387" y1="15.0229" x2="38.6847" y2="15.0229" gradientUnits="userSpaceOnUse">
<stop offset="0.1" stop-color="#92FE9D"/>
<stop offset="1" stop-color="#00C9FF"/>
</linearGradient>
<linearGradient id="paint2_linear_124_1200" x1="31.2617" y1="22.9299" x2="36.0464" y2="22.9299" gradientUnits="userSpaceOnUse">
<stop offset="0.1" stop-color="#92FE9D"/>
<stop offset="1" stop-color="#00C9FF"/>
</linearGradient>
<linearGradient id="paint3_linear_124_1200" x1="11.7061" y1="13.4829" x2="26.3915" y2="13.4829" gradientUnits="userSpaceOnUse">
<stop offset="0.1" stop-color="#92FE9D"/>
<stop offset="1" stop-color="#00C9FF"/>
</linearGradient>
<linearGradient id="paint4_linear_124_1200" x1="39.2861" y1="46.5511" x2="50.0001" y2="46.5511" gradientUnits="userSpaceOnUse">
<stop offset="0.1" stop-color="#92FE9D"/>
<stop offset="1" stop-color="#00C9FF"/>
</linearGradient>
<linearGradient id="paint5_linear_124_1200" x1="20.0977" y1="45.4425" x2="26.8843" y2="45.4425" gradientUnits="userSpaceOnUse">
<stop offset="0.1" stop-color="#92FE9D"/>
<stop offset="1" stop-color="#00C9FF"/>
</linearGradient>
<linearGradient id="paint6_linear_124_1200" x1="0" y1="45.3014" x2="6.78668" y2="45.3014" gradientUnits="userSpaceOnUse">
<stop offset="0.1" stop-color="#92FE9D"/>
<stop offset="1" stop-color="#00C9FF"/>
</linearGradient>
<linearGradient id="paint7_linear_124_1200" x1="31.5566" y1="46.5357" x2="38.91" y2="46.5357" gradientUnits="userSpaceOnUse">
<stop offset="0.1" stop-color="#92FE9D"/>
<stop offset="1" stop-color="#00C9FF"/>
</linearGradient>
<linearGradient id="paint8_linear_124_1200" x1="11.6719" y1="46.4639" x2="18.2706" y2="46.4639" gradientUnits="userSpaceOnUse">
<stop offset="0.1" stop-color="#92FE9D"/>
<stop offset="1" stop-color="#00C9FF"/>
</linearGradient>
<linearGradient id="paint9_linear_124_1200" x1="27.9648" y1="45.2778" x2="31.1634" y2="45.2778" gradientUnits="userSpaceOnUse">
<stop offset="0.1" stop-color="#92FE9D"/>
<stop offset="1" stop-color="#00C9FF"/>
</linearGradient>
<linearGradient id="paint10_linear_124_1200" x1="7.91797" y1="46.5777" x2="9.98141" y2="46.5777" gradientUnits="userSpaceOnUse">
<stop offset="0.1" stop-color="#92FE9D"/>
<stop offset="1" stop-color="#00C9FF"/>
</linearGradient>
<linearGradient id="paint11_linear_124_1200" x1="7.875" y1="41.4792" x2="10.0343" y2="41.4792" gradientUnits="userSpaceOnUse">
<stop offset="0.1" stop-color="#92FE9D"/>
<stop offset="1" stop-color="#00C9FF"/>
</linearGradient>
</defs>
</svg>
