<svg width="20" height="20" viewBox="0 0 20 20" fill="none" xmlns="http://www.w3.org/2000/svg">
<path d="M7.5 11C7.77614 11 8 10.7761 8 10.5C8 10.2239 7.77614 10 7.5 10C7.22386 10 7 10.2239 7 10.5C7 10.7761 7.22386 11 7.5 11Z" stroke="#898989" stroke-width="2" stroke-linecap="round" stroke-linejoin="round"/>
<path d="M12.5 11C12.7761 11 13 10.7761 13 10.5C13 10.2239 12.7761 10 12.5 10C12.2239 10 12 10.2239 12 10.5C12 10.7761 12.2239 11 12.5 11Z" stroke="#898989" stroke-width="2" stroke-linecap="round" stroke-linejoin="round"/>
<path d="M6.4 19H3.7V16.75M6.4 19V14.5H10M6.4 19H10M3.7 16.75H2.8C2.32261 16.75 1.86477 16.5129 1.52721 16.091C1.18964 15.669 1 15.0967 1 14.5V13.375C1 12.7783 1.18964 12.206 1.52721 11.784C1.86477 11.3621 2.32261 11.125 2.8 11.125H3.7M3.7 16.75V11.125M10 14.5H13.6V19M10 14.5V19M10 19H13.6M13.6 19H16.3V16.75M16.3 16.75H17.2C17.6774 16.75 18.1352 16.5129 18.4728 16.091C18.8104 15.669 19 15.0967 19 14.5V13.375C19 12.7783 18.8104 12.206 18.4728 11.784C18.1352 11.3621 17.6774 11.125 17.2 11.125H16.3M16.3 16.75V11.125M10 6.625H7.3C6.34522 6.625 5.42955 7.09911 4.75442 7.94302C4.07928 8.78693 3.7 9.93153 3.7 11.125M10 6.625H12.7C13.6548 6.625 14.5705 7.09911 15.2456 7.94302C15.9207 8.78693 16.3 9.93153 16.3 11.125M10 6.625V2.125M3.7 12.8125V15.0625" stroke="#898989" stroke-width="2" stroke-linecap="round" stroke-linejoin="round"/>
<path d="M9.99961 3.25C10.4967 3.25 10.8996 2.74632 10.8996 2.125C10.8996 1.50368 10.4967 1 9.99961 1C9.50255 1 9.09961 1.50368 9.09961 2.125C9.09961 2.74632 9.50255 3.25 9.99961 3.25Z" stroke="#898989" stroke-width="2" stroke-linecap="round" stroke-linejoin="round"/>
</svg>
