<svg width="20" height="20" viewBox="0 0 20 20" fill="none" xmlns="http://www.w3.org/2000/svg">
<path d="M10 19C14.9707 19 19 14.9707 19 10C19 5.0293 14.9707 1 10 1C5.0293 1 1 5.0293 1 10C1 14.9707 5.0293 19 10 19Z" stroke="#898989" stroke-width="2" stroke-linecap="round" stroke-linejoin="round"/>
<path d="M12.7008 6.4001H10.0008M10.0008 6.4001H9.10078C8.62339 6.4001 8.16555 6.58974 7.82799 6.92731C7.49042 7.26487 7.30078 7.72271 7.30078 8.2001C7.30078 8.67749 7.49042 9.13532 7.82799 9.47289C8.16555 9.81046 8.62339 10.0001 9.10078 10.0001H10.9008C11.3782 10.0001 11.836 10.1897 12.1736 10.5273C12.5111 10.8649 12.7008 11.3227 12.7008 11.8001C12.7008 12.2775 12.5111 12.7353 12.1736 13.0729C11.836 13.4105 11.3782 13.6001 10.9008 13.6001H10.0008M10.0008 6.4001V4.6001M7.30078 13.6001H10.0008M10.0008 13.6001V15.4001" stroke="#898989" stroke-width="2" stroke-linecap="round" stroke-linejoin="round"/>
</svg>
