<svg width="20" height="20" viewBox="0 0 20 20" fill="none" xmlns="http://www.w3.org/2000/svg">
<path d="M5 7C3.93913 7 2.92172 7.42143 2.17157 8.17157C1.42143 8.92172 1 9.93913 1 11V17C1 17.5304 1.21071 18.0391 1.58579 18.4142C1.96086 18.7893 2.46957 19 3 19H17C17.5304 19 18.0391 18.7893 18.4142 18.4142C18.7893 18.0391 19 17.5304 19 17V11C19 9.93913 18.5786 8.92172 17.8284 8.17157C17.0783 7.42143 16.0609 7 15 7M5 7H15M5 7V4M15 7V4M10 4V7M10 1H10.01M5 1H5.01M15 1H15.01" stroke="#898989" stroke-width="2" stroke-linecap="round" stroke-linejoin="round"/>
<path d="M1 11C1 12 1.6 14 4 14C6.4 14 7 12 7 11C7 12 7.6 14 10 14C12.4 14 13 12 13 11C13 12 13.6 14 16 14C18.4 14 19 12 19 11" stroke="#898989" stroke-width="2" stroke-linecap="round" stroke-linejoin="round"/>
</svg>
