<svg width="20" height="20" viewBox="0 0 20 20" fill="none" xmlns="http://www.w3.org/2000/svg">
<path d="M6.62245 6.62245L2.39932 10.8444C1.95569 11.288 1.60377 11.8147 1.36367 12.3943C1.12358 12.9739 1 13.5951 1 14.2225C1 14.8499 1.12358 15.4712 1.36367 16.0508C1.60377 16.6304 1.95569 17.1571 2.39932 17.6007C2.84294 18.0443 3.3696 18.3962 3.94922 18.6363C4.52884 18.8764 5.15009 19 5.77747 19C6.40485 19 7.02609 18.8764 7.60572 18.6363C8.18534 18.3962 8.712 18.0443 9.15561 17.6007L13.3775 13.3775M6.62245 6.62245L10.8444 2.39932C11.288 1.95569 11.8147 1.60377 12.3943 1.36367C12.9739 1.12358 13.5951 1 14.2225 1C14.8499 1 15.4712 1.12358 16.0508 1.36367C16.6304 1.60377 17.1571 1.95569 17.6007 2.39932C18.0443 2.84294 18.3962 3.3696 18.6363 3.94922C18.8764 4.52884 19 5.15009 19 5.77747C19 6.40485 18.8764 7.02609 18.6363 7.60572C18.3962 8.18534 18.0443 8.712 17.6007 9.15561L13.3775 13.3775M6.62245 6.62245L13.3775 13.3775" stroke="#898989" stroke-width="2" stroke-linecap="round" stroke-linejoin="round"/>
</svg>
