<svg width="20" height="20" viewBox="0 0 20 20" fill="none" xmlns="http://www.w3.org/2000/svg">
<path d="M19 17.8571V8.14286C19 7.96543 18.9593 7.79045 18.8812 7.63176C18.8031 7.47306 18.6897 7.33503 18.55 7.22857L10.675 1.22857C10.4803 1.0802 10.2434 1 10 1C9.75658 1 9.51973 1.0802 9.325 1.22857L1.45 7.22857C1.31028 7.33503 1.19688 7.47306 1.11877 7.63176C1.04066 7.79045 1 7.96543 1 8.14286V17.8571C1 18.1602 1.11853 18.4509 1.32951 18.6653C1.54048 18.8796 1.82663 19 2.125 19H6.625C6.92337 19 7.20952 18.8796 7.42049 18.6653C7.63147 18.4509 7.75 18.1602 7.75 17.8571V14.4286C7.75 14.1255 7.86853 13.8348 8.07951 13.6205C8.29048 13.4061 8.57663 13.2857 8.875 13.2857H11.125C11.4234 13.2857 11.7095 13.4061 11.9205 13.6205C12.1315 13.8348 12.25 14.1255 12.25 14.4286V17.8571C12.25 18.1602 12.3685 18.4509 12.5795 18.6653C12.7905 18.8796 13.0766 19 13.375 19H17.875C18.1734 19 18.4595 18.8796 18.6705 18.6653C18.8815 18.4509 19 18.1602 19 17.8571Z" stroke="#898989" stroke-width="2" stroke-linecap="round" stroke-linejoin="round"/>
</svg>
