<svg width="20" height="20" viewBox="0 0 20 20" fill="none" xmlns="http://www.w3.org/2000/svg">
<path d="M10 19C14.9706 19 19 14.9706 19 10C19 5.02944 14.9706 1 10 1C5.02944 1 1 5.02944 1 10C1 14.9706 5.02944 19 10 19Z" stroke="#898989" stroke-width="2" stroke-linecap="round" stroke-linejoin="round"/>
<path d="M10 10C10.3956 10 10.7822 9.8827 11.1111 9.66294C11.44 9.44318 11.6964 9.13082 11.8478 8.76537C11.9991 8.39992 12.0387 7.99778 11.9616 7.60982C11.8844 7.22186 11.6939 6.86549 11.4142 6.58579C11.1345 6.30608 10.7781 6.1156 10.3902 6.03843C10.0022 5.96126 9.60009 6.00087 9.23463 6.15224C8.86918 6.30362 8.55682 6.55996 8.33706 6.88886C8.1173 7.21776 8 7.60444 8 8M10 13H10.01" stroke="#898989" stroke-width="2" stroke-linecap="round" stroke-linejoin="round"/>
</svg>
