<svg width="45" height="45" viewBox="0 0 45 45" fill="none" xmlns="http://www.w3.org/2000/svg">
<path d="M22.5 0.5C24.6896 0.500001 26.5481 1.36736 28.1006 3.1416C29.6551 4.91822 30.4374 7.07542 30.4375 9.64258V10.1426H39.375C40.7648 10.1426 41.9563 10.7007 42.9727 11.8623C43.9906 13.0257 44.5018 14.4197 44.5 16.0713V38.5713C44.5 40.2256 43.9888 41.6208 42.9727 42.7842C41.9586 43.9451 40.7674 44.5018 39.376 44.5H5.625C4.23501 44.5 3.04453 43.9432 2.03027 42.7842C1.01433 41.6231 0.501836 40.2279 0.5 38.5713V16.0713C0.500028 14.4173 1.01167 13.0234 2.0293 11.8623C2.98243 10.7749 4.08942 10.2164 5.36816 10.1494L5.62598 10.1426H14.5625V9.64258C14.5626 7.07541 15.3449 4.91822 16.8994 3.1416C18.4519 1.36736 20.3104 0.5 22.5 0.5ZM5.125 39.0713H39.875V15.5713H36.0625V38.0713H32.8438V15.5713H12.1562V38.0713H8.9375V15.5713H5.125V39.0713ZM22.5 4.32129C21.1383 4.32129 19.9932 4.83834 19.1006 5.8584C18.2121 6.87383 17.7813 8.14817 17.7812 9.64258V10.1426H27.2188V9.64258C27.2187 8.14817 26.7879 6.87383 25.8994 5.8584C25.0068 4.83834 23.8617 4.32129 22.5 4.32129Z" fill="#898989" stroke="#898989"/>
</svg>
