<svg width="30" height="30" viewBox="0 0 30 30" xmlns="http://www.w3.org/2000/svg">
    <path d="M28 4.5C28 3.83696 27.7364 3.20126 27.2676 2.73242C26.8573 2.32219 26.3194 2.06952 25.7471 2.0127L25.5 2H4.5C3.83696 2 3.20126 2.26358 2.73242 2.73242C2.26358 3.20126 2 3.83696 2 4.5V25.5C2 26.163 2.26358 26.7987 2.73242 27.2676C3.20126 27.7364 3.83696 28 4.5 28H25.5C26.163 28 26.7987 27.7364 27.2676 27.2676C27.7364 26.7987 28 26.163 28 25.5V4.5ZM7 22V13.25C7 12.6977 7.44772 12.25 8 12.25C8.55229 12.25 9 12.6977 9 13.25V22C9 22.5523 8.55229 23 8 23C7.44772 23 7 22.5523 7 22ZM14 22V8C14 7.44772 14.4477 7 15 7C15.5523 7 16 7.44772 16 8V22C16 22.5523 15.5523 23 15 23C14.4477 23 14 22.5523 14 22ZM21 22V18.5C21 17.9477 21.4477 17.5 22 17.5C22.5523 17.5 23 17.9477 23 18.5V22C23 22.5523 22.5523 23 22 23C21.4477 23 21 22.5523 21 22ZM30 25.5C30 26.6935 29.5256 27.8377 28.6816 28.6816C27.8377 29.5256 26.6935 30 25.5 30H4.5C3.30653 30 2.16227 29.5256 1.31836 28.6816C0.474446 27.8377 0 26.6935 0 25.5V4.5C0 3.30653 0.474446 2.16227 1.31836 1.31836C2.16227 0.474446 3.30653 0 4.5 0H25.5C26.6935 0 27.8377 0.474446 28.6816 1.31836C29.5256 2.16227 30 3.30653 30 4.5V25.5Z"
          fill="#898989"/>
</svg>