<svg width="30" height="30" viewBox="0 0 30 30" fill="none" xmlns="http://www.w3.org/2000/svg">
<path d="M4.11111 16.5556V4.11111C4.11111 3.28599 4.43889 2.49467 5.02233 1.91122C5.60578 1.32778 6.3971 1 7.22222 1H25.8889C26.714 1 27.5053 1.32778 28.0888 1.91122C28.6722 2.49467 29 3.28599 29 4.11111V24.3333C29 25.8889 28.0667 29 24.3333 29M24.3333 29H5.66667C4.11111 29 1 28.0667 1 24.3333V21.2222H19.6667V24.3333C19.6667 28.0667 22.7778 29 24.3333 29ZM10.3333 7.22222H22.7778M10.3333 13.4444H16.5556" stroke="#898989" stroke-width="2" stroke-linecap="round" stroke-linejoin="round"/>
</svg>
