<svg width="30" height="30" viewBox="0 0 30 30" fill="none" xmlns="http://www.w3.org/2000/svg">
<path d="M1 9V25C1 26.0609 1.32778 27.0783 1.91122 27.8284C2.49467 28.5786 3.28599 29 4.11111 29H25.8889C26.714 29 27.5053 28.5786 28.0888 27.8284C28.6722 27.0783 29 26.0609 29 25V9M1 9V5C1 3.93913 1.32778 2.92172 1.91122 2.17157C2.49467 1.42143 3.28599 1 4.11111 1H25.8889C26.714 1 27.5053 1.42143 28.0888 2.17157C28.6722 2.92172 29 3.93913 29 5V9M1 9H29M7.22222 17H15" stroke="#898989" stroke-width="2" stroke-linecap="round" stroke-linejoin="round"/>
</svg>
