<svg width="22" height="20" viewBox="0 0 22 20" fill="none" xmlns="http://www.w3.org/2000/svg">
<path d="M5.95459 4.29047C7.46689 3.41055 9.19524 2.94977 10.9546 2.95745C17.2616 2.95745 20.3216 8.51953 20.8646 9.6206C20.9246 9.74098 20.9246 9.87604 20.8646 9.9974C20.5126 10.7099 19.1086 13.2879 16.4546 15.0192M12.9546 16.4638C12.2963 16.5947 11.6263 16.6602 10.9546 16.6596C4.64759 16.6596 1.58759 11.0975 1.04459 9.99643C1.01525 9.9376 1 9.87299 1 9.80753C1 9.74207 1.01525 9.67747 1.04459 9.61864C1.26359 9.17626 1.88459 8.02136 2.95459 6.79502M8.95459 7.62009C9.52613 7.12005 10.2716 6.85313 11.0379 6.87412C11.8042 6.89511 12.5332 7.20242 13.0753 7.73295C13.6173 8.26349 13.9313 8.977 13.9528 9.727C13.9742 10.477 13.7015 11.2066 13.1906 11.766M1.95459 1L19.9546 18.617" stroke="#898989" stroke-width="2" stroke-linecap="round" stroke-linejoin="round"/>
</svg>
