<svg width="22" height="22" viewBox="0 0 22 22" fill="none" xmlns="http://www.w3.org/2000/svg">
<path d="M15.4436 2.40934H18.7768C19.3661 2.40934 19.9313 2.63561 20.3481 3.03838C20.7648 3.44114 20.9989 3.98741 20.9989 4.557V5.63084M15.4436 19.5907H18.7768C19.3661 19.5907 19.9313 19.3644 20.3481 18.9616C20.7648 18.5589 20.9989 18.0126 20.9989 17.443V16.3692M15.4448 11H21M21 11L18.7779 8.85233M21 11L18.7779 13.1477M2.58325 18.9764L9.24954 20.9093C9.58139 21.0056 9.93194 21.0255 10.2732 20.9676C10.6144 20.9096 10.9369 20.7753 11.2149 20.5754C11.4929 20.3754 11.7186 20.1155 11.8741 19.8162C12.0296 19.517 12.1106 19.1867 12.1105 18.8519V3.14814C12.1106 2.81326 12.0296 2.48301 11.8741 2.18376C11.7186 1.88451 11.4929 1.62455 11.2149 1.42465C10.9369 1.22474 10.6144 1.09043 10.2732 1.03245C9.93194 0.974457 9.58139 0.994397 9.24954 1.09067L2.58325 3.02357C2.12552 3.15637 1.72428 3.42825 1.43907 3.79888C1.15387 4.16951 0.999895 4.61914 1 5.08103V16.919C0.999895 17.3809 1.15387 17.8305 1.43907 18.2011C1.72428 18.5717 2.12552 18.8436 2.58325 18.9764Z" stroke="white" stroke-width="2" stroke-linecap="round" stroke-linejoin="round"/>
</svg>
