<svg width="22" height="16" viewBox="0 0 22 16" fill="none" xmlns="http://www.w3.org/2000/svg">
<path d="M11 1C4.66392 1 1.58981 6.683 1.0443 7.808C1.01515 7.86784 1 7.93349 1 8C1 8.06651 1.01515 8.13216 1.0443 8.192C1.5888 9.317 4.66291 15 11 15C17.3371 15 20.4102 9.317 20.9557 8.192C20.9849 8.13216 21 8.06651 21 8C21 7.93349 20.9849 7.86784 20.9557 7.808C20.4112 6.683 17.3371 1 11 1Z" stroke="#898989" stroke-width="2" stroke-linecap="round" stroke-linejoin="round"/>
<path d="M10.9982 11C12.6627 11 14.012 9.65685 14.012 8C14.012 6.34315 12.6627 5 10.9982 5C9.33371 5 7.98438 6.34315 7.98438 8C7.98438 9.65685 9.33371 11 10.9982 11Z" stroke="#898989" stroke-width="2" stroke-linecap="round" stroke-linejoin="round"/>
</svg>
