<svg width="30" height="30" viewBox="0 0 30 30" fill="none" xmlns="http://www.w3.org/2000/svg">
<path d="M1 8V22C1 22.9283 1.32778 23.8185 1.91122 24.4749C2.49467 25.1313 3.28599 25.5 4.11111 25.5H13.4444M1 8V4.5C1 3.57174 1.32778 2.6815 1.91122 2.02513C2.49467 1.36875 3.28599 1 4.11111 1H25.8889C26.714 1 27.5053 1.36875 28.0888 2.02513C28.6722 2.6815 29 3.57174 29 4.5V8M1 8H29M29 8V13.25M7.22222 15H15M24.3333 18.5V23.75M24.3333 23.75V29M24.3333 23.75H19.6667M24.3333 23.75H29" stroke="#898989" stroke-width="2" stroke-linecap="round" stroke-linejoin="round"/>
</svg>
