<svg width="50" height="50" viewBox="0 0 50 50" fill="none" xmlns="http://www.w3.org/2000/svg">
<path d="M21.9743 33.19C21.464 33.2218 21.3463 33.4675 21.3417 33.877C21.3241 35.4616 21.3114 35.4636 19.6088 35.4618C18.1876 35.4602 18.3621 35.5504 18.3584 34.2617C18.3551 33.0797 18.3416 33.3189 17.3739 33.1192C16.8661 33.0144 16.3877 32.7688 15.7425 32.7885C15.7425 33.4809 15.7293 34.1541 15.747 34.8265C15.7591 35.2854 15.5612 35.4709 15.0692 35.4624C13.9277 35.4426 12.7854 35.4442 11.6438 35.4595C11.1905 35.4656 10.9953 35.316 11.0001 34.8685C11.0179 33.1904 11.0104 31.5121 11.0118 29.8339C11.012 29.6104 11.0352 29.3935 11.1965 29.2137C12.3878 27.8855 13.6214 26.5983 15.1462 25.5953C15.2664 25.5163 15.3873 25.4288 15.5651 25.447C15.824 25.6296 15.7271 25.9102 15.7487 26.1559C15.7679 26.3744 15.7395 26.5969 15.7637 26.8146C15.8223 27.3412 15.5135 27.9898 15.935 28.3726C16.5377 28.9198 17.3426 29.2278 18.1549 29.3993C18.4445 29.1883 18.3483 28.9284 18.3495 28.7032C18.3585 27.0849 18.3673 25.4665 18.3469 23.8484C18.3418 23.442 18.483 23.1845 18.842 22.9628C20.3284 22.0446 21.8025 21.1084 23.2733 20.1681C23.5213 20.0094 23.7341 19.9341 24.0276 20.0723C26.2424 21.115 27.8619 22.6148 28.287 25.0231C28.3805 25.5527 28.4343 26.0941 28.4411 26.6308C28.475 29.3075 28.4895 31.9844 28.5053 34.6612C28.5096 35.4073 28.4637 35.4471 27.6891 35.4498C26.6318 35.4536 25.5732 35.4206 24.5177 35.462C23.8834 35.4868 23.7138 35.2439 23.7258 34.6894C23.7389 34.0775 23.8462 33.4574 23.678 32.8096C23.0883 32.8286 22.5815 33.1135 21.9743 33.19ZM21.9314 23.7815C21.7611 23.7237 21.5937 23.5969 21.4032 23.7647C21.4032 25.6425 21.4032 27.5223 21.4032 29.4031C22.9655 29.3546 24.2456 27.784 24.0355 26.3006C23.8635 25.0865 23.1188 24.3313 21.9314 23.7815Z" fill="#898989"/>
<path d="M15.1465 21.7178C17.4224 19.7079 19.8956 17.983 22.1892 16.0588C25.542 13.2461 28.6096 10.1991 30.9091 6.52664C31.3701 5.79033 31.3561 5.7898 30.5653 5.35174C29.8399 4.94992 29.1228 4.53472 28.448 4.15151C28.4326 3.90682 28.5638 3.87155 28.6773 3.82369C31.7673 2.52089 34.881 1.27149 38.021 0.0800391C38.4949 -0.099776 38.6991 0.0162835 38.685 0.500449C38.5931 3.65599 38.5056 6.81166 38.4126 9.96718C38.4081 10.1226 38.409 10.2888 38.2523 10.448C37.7832 10.3701 37.5038 9.99379 37.1475 9.74103C36.7929 9.48948 36.4486 9.2195 36.1331 8.92565C35.7425 8.56185 35.4759 8.57512 35.1272 9.01051C33.7456 10.7352 32.1876 12.314 30.5193 13.7938C27.2822 16.6649 23.626 19.0104 19.936 21.3142C17.8004 22.6476 15.6916 24.0151 13.7738 25.63C12.3574 26.8227 11.1093 28.1394 10.1639 29.701C10.0919 29.8199 9.99598 29.9266 9.90239 30.032C9.88459 30.0521 9.8253 30.0393 9.71484 30.0457C10.5811 26.7137 12.5805 24.0775 15.1465 21.7178Z" fill="#898989"/>
<path d="M36.034 31.9379C36.034 33.0173 36.007 34.0377 36.0448 35.0559C36.065 35.5975 35.8882 35.8096 35.2954 35.7918C34.2175 35.7594 33.1367 35.7589 32.059 35.7956C31.4415 35.8166 31.2592 35.5957 31.2617 35.0292C31.2825 30.3717 31.278 25.7142 31.2808 21.0567C31.282 19.1577 31.2907 17.2586 31.2772 15.3598C31.2741 14.9297 31.4075 14.619 31.7546 14.3165C33.0626 13.1767 34.2557 11.9332 35.3388 10.5966C35.4963 10.4022 35.5975 10.1328 36.034 10.0631C36.034 17.356 36.034 24.6169 36.034 31.9379Z" fill="#898989"/>
<path d="M11.707 15.2664C11.8153 11.9089 14.0439 9.42167 17.6178 8.61325C18.5538 8.40154 18.5538 8.40154 18.5543 7.47716C18.5544 7.33729 18.5672 7.19623 18.5525 7.05776C18.5073 6.62999 18.6747 6.43553 19.1585 6.45776C19.7915 6.48686 20.4272 6.4728 21.0615 6.46318C21.4073 6.45794 21.5767 6.59245 21.555 6.92433C21.5537 6.94421 21.554 6.96442 21.5561 6.98423C21.6072 7.45498 21.3551 8.02112 21.6902 8.37556C21.9951 8.69803 22.5946 8.62906 23.0589 8.75251C24.1241 9.03573 25.1299 9.43793 26.0698 9.99396C26.4094 10.1949 26.5195 10.3791 26.2112 10.6939C25.5079 11.4119 24.819 12.1424 24.1285 12.8715C23.8517 13.1638 23.591 13.2427 23.2012 12.9935C22.7708 12.7183 22.2173 12.3009 21.7724 12.5123C21.3042 12.7349 21.5168 13.4039 21.5819 13.8429C21.7379 14.8954 21.279 15.5836 20.3972 16.1373C19.8089 16.5067 19.3265 17.0202 18.5688 17.418C18.5688 15.6786 18.5688 14.0571 18.5688 12.3511C17.4785 12.5518 16.7383 13.0247 16.3619 13.8992C15.5993 15.6709 16.4998 16.8829 18.0646 17.8986C17.3085 18.5204 16.6157 19.0908 15.9221 19.6602C15.8104 19.7519 15.693 19.8376 15.5813 19.9293C14.6297 20.7108 14.6332 20.7078 13.7288 19.8916C12.3488 18.6462 11.7538 17.0935 11.707 15.2664Z" fill="#898989"/>
<path d="M49.7118 44.4078C49.1342 46.0436 48.5349 47.6243 48.0296 49.2314C47.8101 49.9296 47.3109 49.811 46.7905 49.844C46.2654 49.8774 45.9764 49.7102 45.8231 49.2137C45.4933 48.1451 45.1103 47.0912 44.5913 46.0246C44.2755 46.9695 43.9563 47.9134 43.6448 48.8595C43.3211 49.8423 42.9239 50.0512 41.8245 49.8218C41.6137 49.7778 41.4844 49.6726 41.4192 49.4881C40.7043 47.4634 39.9169 45.4607 39.2852 43.3437C39.9144 43.1402 40.5165 43.1903 41.1111 43.2799C41.3904 43.3221 41.3951 43.6094 41.4582 43.8085C41.7307 44.6688 41.9837 45.5345 42.2444 46.3981C42.3068 46.6048 42.3349 46.8255 42.5448 47.0452C42.8649 46.4031 43.0055 45.7438 43.2196 45.1096C43.348 44.7292 43.5003 44.352 43.58 43.962C43.6974 43.3875 44.0144 43.1812 44.6374 43.2108C45.562 43.2547 45.5535 43.2222 45.8268 44.0987C46.1194 45.0368 46.4338 45.969 46.741 46.9031C46.7592 46.9584 46.7974 47.0079 46.8823 47.1609C47.2134 46.0768 47.5703 45.0853 47.8079 44.0689C47.969 43.3795 48.3283 43.1228 49.0373 43.2137C49.3443 43.253 49.6722 43.1488 49.9913 43.3478C50.0449 43.7111 49.8088 44.0218 49.7118 44.4078Z" fill="#898989"/>
<path d="M26.7696 42.6648C25.4127 42.6648 23.9712 42.6289 22.7277 42.6135C22.0867 42.6055 22.1441 42.9188 22.1712 43.5321C22.2385 45.0566 21.9654 44.8233 23.5481 44.8458C24.3094 44.8567 25.0715 44.8675 25.832 44.8442C26.2945 44.8301 26.4712 44.991 26.4764 45.4316C26.4883 46.4378 26.4603 46.4834 25.4127 46.4854C24.5455 46.487 23.6778 46.5037 22.8115 46.4781C22.3503 46.4645 22.1618 46.6038 22.1801 47.0569C22.209 47.7752 22.1712 48.4958 22.1925 49.2146C22.2049 49.6349 22.0705 49.8399 21.5852 49.8347C19.8474 49.816 20.1148 49.9618 20.1096 48.4816C20.1018 46.2836 20.1089 44.0855 20.1128 41.8874C20.1142 41.0782 20.1381 41.0571 21.0138 41.0553C22.6846 41.0517 24.3555 41.0506 26.0263 41.0503C26.8613 41.0501 26.8807 41.0669 26.879 41.854C26.8785 42.1115 26.9219 42.3746 26.7696 42.6648Z" fill="#898989"/>
<path d="M6.67193 42.5237C5.31504 42.5237 3.87352 42.4878 2.63005 42.4724C1.98904 42.4644 2.04647 42.7777 2.07353 43.3909C2.14083 44.9154 1.86777 44.6822 3.45047 44.7047C4.2117 44.7156 4.97383 44.7264 5.73439 44.7031C6.1968 44.689 6.37355 44.8499 6.37876 45.2905C6.39067 46.2967 6.36264 46.3423 5.31504 46.3443C4.44789 46.3459 3.58014 46.3626 2.71384 46.337C2.25269 46.3234 2.06412 46.4627 2.0824 46.9158C2.11137 47.6341 2.07357 48.3547 2.09483 49.0735C2.10726 49.4938 1.9728 49.6988 1.48759 49.6936C-0.25028 49.6749 0.0171897 49.8207 0.0119432 48.3405C0.00414692 46.1425 0.0112922 43.9444 0.0151322 41.7463C0.0165466 40.9371 0.0404157 40.916 0.916138 40.9141C2.58697 40.9106 4.25782 40.9095 5.92866 40.9092C6.76361 40.909 6.78307 40.9258 6.78137 41.7128C6.78081 41.9704 6.82423 42.2335 6.67193 42.5237Z" fill="#898989"/>
<path d="M32.1202 44.6162C33.1693 43.29 34.621 42.8096 36.2919 43.2061C37.7408 43.5499 38.7259 44.6124 38.8882 46.1975C39.0234 47.5172 38.5337 48.6565 37.3026 49.3812C35.9274 50.1907 34.4906 50.2216 33.1162 49.3819C31.9023 48.6403 31.4429 47.5241 31.5801 46.1813C31.6354 45.6394 31.7952 45.1244 32.1202 44.6162ZM36.3751 47.832C36.4882 47.6655 36.6262 47.5095 36.7102 47.3308C37.2091 46.2695 36.6522 44.9927 35.6193 44.806C34.782 44.6547 34.0956 44.9827 33.7577 45.6957C33.4007 46.4491 33.5957 47.5 34.1784 47.9639C34.8109 48.4673 35.5278 48.4434 36.3751 47.832Z" fill="#898989"/>
<path d="M16.2821 47.8923C16.2812 47.213 16.2888 46.5934 16.2776 45.9741C16.2629 45.1685 15.929 44.8221 15.1757 44.8058C14.3174 44.7872 13.6891 45.2721 13.6727 46.0143C13.6506 47.013 13.6698 48.0125 13.6667 49.0116C13.6643 49.8067 13.6424 49.825 12.8211 49.8318C11.6867 49.8413 11.6877 49.8413 11.6883 48.7985C11.6894 47.1808 11.7205 45.5622 11.6728 43.9457C11.6549 43.3364 11.8887 43.1556 12.4714 43.2203C12.5965 43.2343 12.7253 43.2273 12.8518 43.2205C13.2734 43.1977 13.6392 43.2413 13.5699 43.8407C14.1729 43.5782 14.6432 43.2464 15.2399 43.1477C17.0409 42.8498 18.2491 43.7493 18.2622 45.4578C18.2719 46.7167 18.2501 47.9759 18.2704 49.2345C18.2774 49.6694 18.1241 49.8424 17.6512 49.8364C16.0473 49.8163 16.3112 49.9044 16.2854 48.6116C16.281 48.3919 16.2831 48.172 16.2821 47.8923Z" fill="#898989"/>
<path d="M29.9467 43.3342C29.9478 44.7121 29.9528 46.0301 29.9476 47.348C29.9456 47.8635 30.0414 48.2771 30.7395 48.2328C30.829 48.2271 30.9566 48.2797 31.0119 48.346C31.398 48.8088 30.9951 49.7555 30.3796 49.8522C28.7258 50.1119 27.9846 49.527 27.9779 47.9307C27.9688 45.7542 27.9916 43.5774 27.965 41.4011C27.9581 40.8336 28.1409 40.6249 28.7591 40.6454C30.125 40.6906 29.9263 40.5504 29.9436 41.7766C29.9507 42.2758 29.9459 42.775 29.9467 43.3342Z" fill="#898989"/>
<path d="M9.9615 47.892C9.96252 48.2711 9.9795 48.5914 9.95993 48.9096C9.94136 49.2116 10.1137 49.6456 9.71503 49.7611C9.19824 49.9108 8.62634 49.909 8.09624 49.7419C7.89508 49.6785 7.91871 49.4421 7.91892 49.2635C7.92107 47.4672 7.93184 45.6708 7.92592 43.8745C7.92449 43.4436 8.09866 43.2773 8.5673 43.2857C10.0663 43.3125 9.95524 43.1085 9.95437 44.5388C9.9537 45.6366 9.95891 46.7344 9.9615 47.892Z" fill="#898989"/>
<path d="M7.89499 41.7463C7.89504 40.5793 8.1495 40.4127 9.51432 40.5893C9.84933 40.6327 9.97147 40.7773 9.99615 41.0911C10.0989 42.3984 10.0891 42.4076 8.69842 42.4276C8.21718 42.4345 7.77465 42.4558 7.89499 41.7463Z" fill="#898989"/>
</svg>
