<svg width="32" height="32" viewBox="0 0 32 32" fill="none" xmlns="http://www.w3.org/2000/svg">
    <circle cx="16" cy="16" r="16" fill="#454545"/>
    <path d="M17.3333 10.6667H14.6667V14.6667H10.6667V17.3333H14.6667V21.3333H17.3333V17.3333H21.3333V14.6667H17.3333M16 25.3333C13.5246 25.3333 11.1507 24.35 9.40034 22.5997C7.65 20.8493 6.66667 18.4754 6.66667 16C6.66667 13.5246 7.65 11.1507 9.40034 9.40034C11.1507 7.65 13.5246 6.66667 16 6.66667C18.4754 6.66667 20.8493 7.65 22.5997 9.40034C24.35 11.1507 25.3333 13.5246 25.3333 16C25.3333 18.4754 24.35 20.8493 22.5997 22.5997C20.8493 24.35 18.4754 25.3333 16 25.3333ZM16 4C12.8174 4 9.76516 5.26428 7.51472 7.51472C5.26428 9.76516 4 12.8174 4 16C4 19.1826 5.26428 22.2348 7.51472 24.4853C9.76516 26.7357 12.8174 28 16 28C19.1826 28 22.2348 26.7357 24.4853 24.4853C26.7357 22.2348 28 19.1826 28 16C28 12.8174 26.7357 9.76516 24.4853 7.51472C22.2348 5.26428 19.1826 4 16 4Z" fill="#898989"/>
</svg>