<svg width="31" height="31" viewBox="0 0 31 31" fill="none" xmlns="http://www.w3.org/2000/svg">
<path d="M18.3819 5.86531L22.2529 1.99428C22.5695 1.67779 22.9989 1.5 23.4465 1.5C23.8942 1.5 24.3235 1.67779 24.6401 1.99428L29.0057 6.35995C29.3222 6.67653 29.5 7.10585 29.5 7.5535C29.5 8.00115 29.3222 8.43047 29.0057 8.74705L25.1347 12.6181M18.3819 5.86531L1.99464 22.2526C1.67802 22.5691 1.5001 22.9984 1.5 23.4461V27.8118C1.5 28.2595 1.67786 28.6889 1.99446 29.0055C2.31106 29.3221 2.74046 29.5 3.18819 29.5H7.55386C8.00156 29.4999 8.43089 29.322 8.74741 29.0054L25.1347 12.6181M18.3819 5.86531L25.1347 12.6181" stroke="#898989" stroke-width="3" stroke-linecap="round" stroke-linejoin="round"/>
</svg>
